<svg width="152" height="152" viewBox="0 0 152 152" fill="none" xmlns="http://www.w3.org/2000/svg">
<path d="M145.532 75.461C145.532 113.566 114.644 144.454 76.539 144.454C38.4347 144.454 7.54608 113.566 7.54608 75.461C7.54608 37.3568 38.4347 6.46814 76.539 6.46814C114.644 6.46814 145.532 37.3568 145.532 75.461Z" fill="#C60917"/>
<g filter="url(#filter0_i_4_2)">
<path d="M29.545 90.8312C28.8589 90.3115 28.9573 89.4495 28.9573 89.4495L32.7587 44.2266C32.7587 44.2266 32.8181 43.7285 33.0395 43.4738C33.1792 43.3146 33.3559 43.0829 33.6888 42.9469C37.512 41.3834 58.2933 30.126 68.7618 40.6075C70.4967 42.6175 72.38 45.5844 72.38 47.8456V86.1199C72.38 86.1199 72.425 86.932 71.6903 87.4235C71.5173 87.5393 70.7927 87.8693 69.9386 87.4423C53.8317 79.3834 35.84 88.5613 31.301 90.968C30.3904 91.4508 29.6803 90.9347 29.545 90.8312ZM120.698 90.968C116.159 88.5613 98.1672 79.3834 82.0603 87.4423C81.2061 87.8693 80.4816 87.5393 80.3087 87.4235C79.5747 86.932 79.6196 86.1199 79.6196 86.1199V47.8456C79.6196 45.5844 81.5029 42.6175 83.2379 40.6075C93.7064 30.126 114.356 41.3827 118.178 42.9469C118.511 43.0829 118.688 43.3146 118.827 43.4738C119.049 43.7285 119.109 44.2266 119.109 44.2266L123.042 89.4495C123.042 89.4495 123.14 90.3115 122.455 90.8312C122.319 90.9347 121.61 91.4508 120.698 90.968ZM85.8776 110.717C86.1325 110.656 86.5754 110.397 86.731 110.157C86.9018 109.894 87.0046 109.711 87.0372 109.37C87.3955 102.581 98.7955 96.2547 120.677 109.153C121.239 109.473 121.884 109.44 122.433 109.041C123.057 108.587 123.048 107.82 123.048 107.82V103.808C123.048 103.808 123.05 103.255 122.85 102.951C122.702 102.726 122.506 102.486 122.18 102.33C107.52 92.8159 88.9879 88.5983 79.5813 101.178C79.4502 101.484 79.3258 101.622 79.0543 101.833C78.6446 102.152 78.1452 102.131 78.1452 102.131H73.9072C73.9072 102.131 73.4079 102.152 72.9982 101.833C72.7267 101.622 72.6023 101.484 72.4712 101.178C63.0646 88.5983 44.5322 92.6168 29.8722 102.131C29.5464 102.287 29.3503 102.527 29.2019 102.752C29.0029 103.056 29.005 103.609 29.005 103.609V107.621C29.005 107.621 28.9949 108.389 29.6195 108.843C30.169 109.242 30.8138 109.274 31.3748 108.955C53.257 96.0557 64.657 102.581 65.0152 109.37C65.0479 109.711 65.1506 109.894 65.3215 110.157C65.4771 110.397 65.92 110.656 66.1749 110.717C71.4 112.015 78.9762 112.527 85.8776 110.717Z" fill="white"/>
</g>
<defs>
<filter id="filter0_i_4_2" x="28.9524" y="36.1904" width="94.0953" height="75.7002" filterUnits="userSpaceOnUse" color-interpolation-filters="sRGB">
<feFlood flood-opacity="0" result="BackgroundImageFix"/>
<feBlend mode="normal" in="SourceGraphic" in2="BackgroundImageFix" result="shape"/>
<feColorMatrix in="SourceAlpha" type="matrix" values="0 0 0 0 0 0 0 0 0 0 0 0 0 0 0 0 0 0 127 0" result="hardAlpha"/>
<feOffset/>
<feGaussianBlur stdDeviation="2"/>
<feComposite in2="hardAlpha" operator="arithmetic" k2="-1" k3="1"/>
<feColorMatrix type="matrix" values="0 0 0 0 0 0 0 0 0 0 0 0 0 0 0 0 0 0 0.25 0"/>
<feBlend mode="normal" in2="shape" result="effect1_innerShadow_4_2"/>
</filter>
</defs>
</svg>
