<svg width="180" height="180" viewBox="0 0 180 180" fill="none" xmlns="http://www.w3.org/2000/svg">
<path d="M172.34 89.3617C172.34 134.486 135.762 171.064 90.6383 171.064C45.5148 171.064 8.93616 134.486 8.93616 89.3617C8.93616 44.2382 45.5148 7.65955 90.6383 7.65955C135.762 7.65955 172.34 44.2382 172.34 89.3617Z" fill="#C60917"/>
<g filter="url(#filter0_i_4_2)">
<path d="M34.9876 107.563C34.175 106.948 34.2916 105.927 34.2916 105.927L38.7932 52.3737C38.7932 52.3737 38.8636 51.7839 39.1258 51.4822C39.2912 51.2937 39.5005 51.0193 39.8947 50.8582C44.4221 49.0068 69.0316 35.6757 81.4284 48.0879C83.483 50.4682 85.7132 53.9817 85.7132 56.6593V101.984C85.7132 101.984 85.7664 102.946 84.8964 103.528C84.6916 103.665 83.8336 104.056 82.8221 103.55C63.7481 94.0068 42.4421 104.875 37.067 107.725C35.9887 108.297 35.1478 107.686 34.9876 107.563ZM142.932 107.725C137.557 104.875 116.251 94.0068 97.1767 103.55C96.1652 104.056 95.3072 103.665 95.1025 103.528C94.2332 102.946 94.2864 101.984 94.2864 101.984V56.6593C94.2864 53.9817 96.5167 50.4682 98.5712 48.0879C110.968 35.6757 135.421 49.0059 139.948 50.8582C140.343 51.0193 140.552 51.2937 140.717 51.4822C140.98 51.7839 141.05 52.3737 141.05 52.3737L145.708 105.927C145.708 105.927 145.824 106.948 145.012 107.563C144.852 107.686 144.012 108.297 142.932 107.725ZM101.697 131.113C101.999 131.04 102.524 130.734 102.708 130.449C102.91 130.137 103.032 129.92 103.07 129.517C103.495 121.477 116.995 113.986 142.907 129.26C143.572 129.64 144.336 129.6 144.987 129.128C145.726 128.59 145.714 127.681 145.714 127.681V122.931C145.714 122.931 145.717 122.276 145.481 121.916C145.305 121.649 145.072 121.365 144.687 121.181C127.327 109.914 105.38 104.919 94.241 119.816C94.0858 120.179 93.9384 120.342 93.617 120.592C93.1318 120.969 92.5404 120.945 92.5404 120.945H87.5218C87.5218 120.945 86.9305 120.969 86.4452 120.592C86.1238 120.342 85.9765 120.179 85.8212 119.816C74.6818 104.919 52.7356 109.678 35.375 120.945C34.9892 121.129 34.757 121.413 34.5812 121.68C34.3456 122.04 34.3481 122.695 34.3481 122.695V127.446C34.3481 127.446 34.3361 128.355 35.0758 128.893C35.7265 129.365 36.4901 129.403 37.1545 129.026C63.0676 113.75 76.5676 121.477 76.9918 129.517C77.0305 129.92 77.1521 130.137 77.3545 130.449C77.5387 130.734 78.0632 131.04 78.365 131.113C84.5527 132.65 93.5245 133.256 101.697 131.113Z" fill="white"/>
</g>
<defs>
<filter id="filter0_i_4_2" x="34.2858" y="42.8572" width="111.429" height="89.645" filterUnits="userSpaceOnUse" color-interpolation-filters="sRGB">
<feFlood flood-opacity="0" result="BackgroundImageFix"/>
<feBlend mode="normal" in="SourceGraphic" in2="BackgroundImageFix" result="shape"/>
<feColorMatrix in="SourceAlpha" type="matrix" values="0 0 0 0 0 0 0 0 0 0 0 0 0 0 0 0 0 0 127 0" result="hardAlpha"/>
<feOffset/>
<feGaussianBlur stdDeviation="2"/>
<feComposite in2="hardAlpha" operator="arithmetic" k2="-1" k3="1"/>
<feColorMatrix type="matrix" values="0 0 0 0 0 0 0 0 0 0 0 0 0 0 0 0 0 0 0.25 0"/>
<feBlend mode="normal" in2="shape" result="effect1_innerShadow_4_2"/>
</filter>
</defs>
</svg>
