<svg width="167" height="167" viewBox="0 0 167 167" fill="none" xmlns="http://www.w3.org/2000/svg">
<path d="M159.894 82.9077C159.894 124.773 125.957 158.709 84.0922 158.709C42.2277 158.709 8.29077 124.773 8.29077 82.9077C8.29077 41.0432 42.2277 7.10632 84.0922 7.10632C125.957 7.10632 159.894 41.0432 159.894 82.9077Z" fill="#C60917"/>
<g filter="url(#filter0_i_4_2)">
<path d="M32.4607 99.7949C31.7068 99.2239 31.8149 98.2768 31.8149 98.2768L35.9915 48.5911C35.9915 48.5911 36.0567 48.0439 36.3 47.7641C36.4535 47.5891 36.6476 47.3346 37.0134 47.1851C41.2138 45.4674 64.0459 33.0991 75.5475 44.6149C77.4537 46.8233 79.5228 50.083 79.5228 52.5673V94.6187C79.5228 94.6187 79.5722 95.5109 78.765 96.0509C78.5749 96.1782 77.7789 96.5408 76.8405 96.0716C59.1441 87.2174 39.3768 97.301 34.3899 99.9452C33.3895 100.476 32.6093 99.9086 32.4607 99.7949ZM132.609 99.9452C127.622 97.301 107.855 87.2174 90.1583 96.0716C89.2199 96.5408 88.4239 96.1782 88.2339 96.0509C87.4275 95.5109 87.4769 94.6187 87.4769 94.6187V52.5673C87.4769 50.083 89.546 46.8233 91.4522 44.6149C102.954 33.0991 125.641 45.4666 129.841 47.1851C130.207 47.3346 130.401 47.5891 130.554 47.7641C130.798 48.0439 130.863 48.5911 130.863 48.5911L135.185 98.2768C135.185 98.2768 135.293 99.2239 134.539 99.7949C134.39 99.9086 133.611 100.476 132.609 99.9452ZM94.3524 121.644C94.6324 121.576 95.1191 121.292 95.29 121.028C95.4777 120.739 95.5906 120.537 95.6265 120.163C96.02 112.704 108.545 105.754 132.586 119.925C133.203 120.277 133.912 120.24 134.516 119.802C135.201 119.303 135.191 118.46 135.191 118.46V114.053C135.191 114.053 135.193 113.445 134.974 113.111C134.81 112.863 134.595 112.6 134.237 112.429C118.131 101.975 97.7696 97.3416 87.4347 111.163C87.2907 111.499 87.154 111.65 86.8558 111.882C86.4056 112.232 85.857 112.21 85.857 112.21H81.2008C81.2008 112.21 80.6521 112.232 80.2019 111.882C79.9037 111.65 79.767 111.499 79.623 111.163C69.2881 97.3416 48.9269 101.757 32.8201 112.21C32.4622 112.381 32.2468 112.644 32.0837 112.892C31.865 113.226 31.8674 113.834 31.8674 113.834V118.241C31.8674 118.241 31.8563 119.085 32.5425 119.584C33.1462 120.022 33.8547 120.058 34.4711 119.707C58.5127 105.535 71.0377 112.704 71.4313 120.163C71.4671 120.537 71.58 120.739 71.7677 121.028C71.9386 121.292 72.4253 121.576 72.7053 121.644C78.4461 123.07 86.7699 123.632 94.3524 121.644Z" fill="white"/>
</g>
<defs>
<filter id="filter0_i_4_2" x="31.8096" y="39.762" width="103.381" height="83.1707" filterUnits="userSpaceOnUse" color-interpolation-filters="sRGB">
<feFlood flood-opacity="0" result="BackgroundImageFix"/>
<feBlend mode="normal" in="SourceGraphic" in2="BackgroundImageFix" result="shape"/>
<feColorMatrix in="SourceAlpha" type="matrix" values="0 0 0 0 0 0 0 0 0 0 0 0 0 0 0 0 0 0 127 0" result="hardAlpha"/>
<feOffset/>
<feGaussianBlur stdDeviation="2"/>
<feComposite in2="hardAlpha" operator="arithmetic" k2="-1" k3="1"/>
<feColorMatrix type="matrix" values="0 0 0 0 0 0 0 0 0 0 0 0 0 0 0 0 0 0 0.25 0"/>
<feBlend mode="normal" in2="shape" result="effect1_innerShadow_4_2"/>
</filter>
</defs>
</svg>
